<?xml version="1.0" encoding="utf-8"?>
<!-- Generator: Adobe Illustrator 19.2.1, SVG Export Plug-In . SVG Version: 6.00 Build 0)  -->
<!DOCTYPE svg PUBLIC "-//W3C//DTD SVG 1.1//EN" "http://www.w3.org/Graphics/SVG/1.1/DTD/svg11.dtd">
<svg version="1.1" id="Layer_1" xmlns="http://www.w3.org/2000/svg" xmlns:xlink="http://www.w3.org/1999/xlink" x="0px" y="0px"
	 viewBox="0 0 76 97" style="enable-background:new 0 0 76 97;" xml:space="preserve">
<g>
	<path d="M37.7,88.2C23,88.2,11,76.3,11,61.5c0-11.6,7.6-21.9,18.5-25.4v-12c-2.1-0.2-3.7-2-3.7-4.1c0-2.3,1.9-4.1,4.1-4.1h15.3
		c2.3,0,4.1,1.9,4.1,4.1c0,2.2-1.6,3.9-3.7,4.1v12c11,3.5,18.5,13.8,18.5,25.4C64.4,76.3,52.4,88.2,37.7,88.2z M30,18.7
		c-0.7,0-1.3,0.6-1.3,1.3s0.6,1.3,1.3,1.3h2.4v17l-1,0.3c-10.3,2.8-17.5,12.3-17.5,23c0,13.1,10.7,23.8,23.8,23.8
		s23.8-10.7,23.8-23.8c0-10.7-7.2-20.1-17.5-23l-1-0.3v-17h2.5c0.7,0,1.2-0.5,1.2-1.3c0-0.7-0.6-1.3-1.3-1.3H30z"/>
</g>
<g>
	<path d="M58.9,59.8c0,0-9.8,4-17.1,0.1C41.8,59.9,50.6,54.7,58.9,59.8z"/>
</g>
<g>
	<path d="M43.7,24.1h-3.4c-0.8,0-1.4-0.6-1.4-1.4s0.6-1.4,1.4-1.4h3.4c0.8,0,1.4,0.6,1.4,1.4S44.5,24.1,43.7,24.1z"/>
</g>
<path d="M59.4,61.4c-15.2,6.3-20.5-3.6-33.4-3.6c-10,0-10,3.6-10,3.6c0,12,9.7,21.7,21.7,21.7C57.2,83.1,60,61.1,59.4,61.4z
	 M21.1,63.4c0-1.1,0.9-1.9,1.9-1.9s1.9,0.9,1.9,1.9c0,1.1-0.9,1.9-1.9,1.9S21.1,64.5,21.1,63.4z M25,74.8c-0.6,0-1.1-0.5-1.1-1.1
	s0.5-1.1,1.1-1.1s1.1,0.5,1.1,1.1S25.6,74.8,25,74.8z M33.2,72.1c-2.3,0-4.1-1.8-4.1-4.1s1.8-4.1,4.1-4.1s4.1,1.8,4.1,4.1
	S35.5,72.1,33.2,72.1z M45.8,76.2c-1,0-1.8-0.8-1.8-1.8c0-1,0.8-1.8,1.8-1.8c1,0,1.8,0.8,1.8,1.8C47.6,75.5,46.8,76.2,45.8,76.2z
	 M50.6,69.3c-0.4,0-0.8-0.3-0.8-0.8s0.3-0.8,0.8-0.8c0.4,0,0.8,0.4,0.8,0.8C51.4,69,51,69.3,50.6,69.3z"/>
</svg>
