<?xml version="1.0" encoding="utf-8"?>
<!-- Generator: Adobe Illustrator 19.2.1, SVG Export Plug-In . SVG Version: 6.00 Build 0)  -->
<svg version="1.1" id="Layer_1" xmlns="http://www.w3.org/2000/svg" xmlns:xlink="http://www.w3.org/1999/xlink" x="0px" y="0px"
	 viewBox="0 0 90 90" style="enable-background:new 0 0 90 90;" xml:space="preserve">
<style type="text/css">
	.st0{fill:#FFFFFF;}
</style>
<g>
	<path class="st0" d="M81.1,40H58.9C54,40,50,36,50,31.1V8.9C50,4,54,0,58.9,0h22.2C86,0,90,4,90,8.9v22.2C90,36,86,40,81.1,40z
		 M58.9,8.9v22.2h22.2l0-22.2H58.9z"/>
	<path class="st0" d="M31.1,40H8.9C4,40,0,36,0,31.1V8.9C0,4,4,0,8.9,0h22.2C36,0,40,4,40,8.9v22.2C40,36,36,40,31.1,40z M8.9,8.9
		v22.2h22.2l0-22.2H8.9z"/>
	<path class="st0" d="M81.1,90H58.9C54,90,50,86,50,81.1V58.9c0-4.9,4-8.9,8.9-8.9h22.2c4.9,0,8.9,4,8.9,8.9v22.2
		C90,86,86,90,81.1,90z M58.9,58.9v22.2h22.2l0-22.2H58.9z"/>
	<path class="st0" d="M31.1,90H8.9C4,90,0,86,0,81.1V58.9C0,54,4,50,8.9,50h22.2c4.9,0,8.9,4,8.9,8.9v22.2C40,86,36,90,31.1,90z
		 M8.9,58.9v22.2h22.2l0-22.2H8.9z"/>
</g>
</svg>
