<?xml version="1.0" encoding="utf-8"?>
<!-- Generator: Adobe Illustrator 19.2.1, SVG Export Plug-In . SVG Version: 6.00 Build 0)  -->
<!DOCTYPE svg PUBLIC "-//W3C//DTD SVG 1.1//EN" "http://www.w3.org/Graphics/SVG/1.1/DTD/svg11.dtd">
<svg version="1.1" id="Layer_1" xmlns="http://www.w3.org/2000/svg" xmlns:xlink="http://www.w3.org/1999/xlink" x="0px" y="0px"
	 viewBox="0 0 63 97" style="enable-background:new 0 0 63 97;" xml:space="preserve">
<style type="text/css">
	.st0{fill:#FFFFFF;}
</style>
<g>
	<path class="st0" d="M32.2,9.2C18.1,9.2,6.7,20.6,6.7,34.7v30.5c0,14.1,11.4,25.5,25.5,25.5s25.5-11.4,25.5-25.5V34.7
		C57.7,20.7,46.2,9.2,32.2,9.2z M54.7,65.3c0,12.4-10.1,22.5-22.5,22.5S9.7,77.7,9.7,65.3V34.7c0-12.4,10.1-22.5,22.5-22.5
		s22.5,10.1,22.5,22.5V65.3z"/>
	<path class="st0" d="M32.2,28c-0.8,0-1.5,0.7-1.5,1.5v11.3c0,0.8,0.7,1.5,1.5,1.5s1.5-0.7,1.5-1.5V29.5C33.7,28.7,33,28,32.2,28z"
		/>
</g>
</svg>
