<?xml version="1.0" encoding="utf-8"?>
<!-- Generator: Adobe Illustrator 19.2.1, SVG Export Plug-In . SVG Version: 6.00 Build 0)  -->
<!DOCTYPE svg PUBLIC "-//W3C//DTD SVG 1.1//EN" "http://www.w3.org/Graphics/SVG/1.1/DTD/svg11.dtd">
<svg version="1.1" id="Layer_1" xmlns="http://www.w3.org/2000/svg" xmlns:xlink="http://www.w3.org/1999/xlink" x="0px" y="0px"
	 viewBox="0 0 500 500" style="enable-background:new 0 0 500 500;" xml:space="preserve">
<style type="text/css">
	.st0{fill:#684C37;}
	.st1{fill:#9A7354;}
	.st2{fill:#EDEDED;}
	.st3{fill:url(#SVGID_1_);}
	.st4{fill:#EDEFEE;}
	.st5{fill:#A5866A;}
	.st6{fill:#3A271B;}
	.st7{fill:#D2232A;}
	.st8{fill:#28AAE2;}
	.st9{fill:#010101;}
	.st10{fill:#FFFFFF;}
	.st11{opacity:0.1;fill:#D2232A;}
	.st12{fill:#F8E4DB;}
	.st13{fill-rule:evenodd;clip-rule:evenodd;fill:#F9D00E;}
	.st14{fill-rule:evenodd;clip-rule:evenodd;fill:#EDEFEE;}
	.st15{fill:none;stroke:#D7E6F6;stroke-miterlimit:10;}
</style>
<g>
	<path class="st0" d="M93.3,98.9c-0.4-0.1-0.6-0.3-0.7-0.7c-0.1-0.4-0.1-0.9-0.1-1.3c0.2-1.1,0.7-2,1.2-3c1.9-4.3,4.5-8.2,7-12.2
		c4.2-6.7,9.4-14.9,16.5-19.4c2.7-1.7,5.8-2.9,9.1-3.2c3.7-0.3,9.1-0.4,12.6,0.8c5,1.7,9.5,4.7,13,8.6c3.1,3.4,7.1,8.7,6.7,13.6
		c0-0.3-9.3,0.1-10.1,0.1c-5.3,0.3-10.6,1.5-15.7,2.8c-9.3,2.4-18.5,5.5-27.2,9.5c-0.4,0.2-0.7,0.3-1.1,0.5c-2,0.9-3.9,1.8-5.9,2.7
		C97.1,98.3,95,99.5,93.3,98.9z"/>
	<path class="st1" d="M91.6,91.3c-1.4,4.9-0.2,9.8,5.8,6.7c8.6-4.5,16.7-10,23.7-16.6c6.6-6.2,12.6-13,19-19.4
		c-2.2,3.8-7.4,10.6-9.6,14.4c4,0.7,24.1,6,24.9,5.5c13.8-9,28.8-16.4,44.3-21.9c-7.1-10.1-17.8-17.6-29.4-21.6
		c-8.3-2.9-17.5-5.1-26.3-4.1c-12.7,1.4-22.9,12-31.1,20.8C109.8,58.5,95,79.6,91.6,91.3z"/>
</g>
<g>
	<path class="st0" d="M413.8,100.9c0.4-0.1,0.6-0.3,0.7-0.7c0.1-0.4,0.1-0.9,0.1-1.3c-0.2-1.1-0.7-2-1.2-3c-1.9-4.3-4.5-8.2-7-12.2
		c-4.2-6.7-9.4-14.9-16.5-19.4c-2.7-1.7-5.8-2.9-9.1-3.2c-3.7-0.3-9.1-0.4-12.6,0.8c-5,1.7-9.5,4.7-13,8.6
		c-3.1,3.4-7.1,8.7-6.7,13.6c0-0.3,9.3,0.1,10.1,0.1c5.3,0.3,10.6,1.5,15.7,2.8c9.3,2.4,18.5,5.5,27.2,9.5c0.4,0.2,0.7,0.3,1.1,0.5
		c2,0.9,3.9,1.8,5.9,2.7C410,100.3,412,101.5,413.8,100.9z"/>
	<path class="st1" d="M415.5,93.3c1.4,4.9,0.2,9.8-5.8,6.7c-8.6-4.5-16.7-10-23.7-16.6c-6.6-6.2-12.6-13-19-19.4
		c2.2,3.8,7.4,10.6,9.6,14.4c-4,0.7-24.1,6-24.9,5.5c-13.8-9-28.8-16.4-44.3-21.9c7.1-10.1,17.8-17.6,29.4-21.6
		c8.3-2.9,17.5-5.1,26.3-4.1c12.7,1.4,22.9,12,31.1,20.8C397.3,60.5,412,81.6,415.5,93.3z"/>
</g>
<circle class="st2" cx="249.2" cy="327.1" r="118.1"/>
<linearGradient id="SVGID_1_" gradientUnits="userSpaceOnUse" x1="151.0101" y1="274.4897" x2="348.9574" y2="274.4897">
	<stop  offset="0" style="stop-color:#70A4D8"/>
	<stop  offset="0" style="stop-color:#72A5D9"/>
	<stop  offset="0" style="stop-color:#84AEDD"/>
	<stop  offset="0" style="stop-color:#8AB1DE"/>
	<stop  offset="7.908821e-03" style="stop-color:#87AFDD"/>
	<stop  offset="9.919113e-02" style="stop-color:#6D9ED4"/>
	<stop  offset="0.2" style="stop-color:#5691CD"/>
	<stop  offset="0.3153" style="stop-color:#4188C8"/>
	<stop  offset="0.4515" style="stop-color:#3082C4"/>
	<stop  offset="0.6288" style="stop-color:#237EC2"/>
	<stop  offset="1" style="stop-color:#1E7DC2"/>
</linearGradient>
<path class="st3" d="M345,240c-0.5,0.2-0.9,0.4-1.4,0.5c-0.3,2.2-0.6,4.3-1.3,6.3c-4.5,13.7-14.6,22.5-27.3,28.7
	c-24.7,12.1-51,16-78.4,14.2c-18.8-1.3-36.8-5.7-53.3-14.7c-14.7-8.1-24.2-19.2-25.9-34.8c-0.4-0.1-0.9-0.2-1.3-0.3
	c-0.2,0-0.8-0.1-0.9-0.1c-0.6,0-1.1-0.1-1.7-0.1c-4.7,16.7-2.7,32.1,10.5,45.2c8.1,8,18.2,13,29.1,16.4c28.9,8.9,58.4,11.1,88.4,6.2
	c15.7-2.6,31-6.6,44.7-15c21.2-13,26.6-33.9,20.9-53.4C346.2,239.4,345.6,239.7,345,240z"/>
<path class="st1" d="M294.2,54.3c5.6,0.2,11.3,1,17,2.8c18,5.7,35.2,17.7,46.4,33c10.4,14.2,15.1,31.8,15.1,49.2
	c0,16.3-1.3,33.3-2,49.8c-1.7,45.7-24,90.8-71.6,102.8c-6,1.5-10.8,2-16.9,0c-2.4,0-9.3-4.2-11.4-5.8c-4.1-3.2-6.1-10.7-8.4-15.3
	c-1.3-2.8-2.8-5.7-5.5-7.2c-2.1-1.1-4.5-1.2-6.8-1.1c-3.9,0.1-8.2,0.7-10.8,3.6c-1.3,1.4-2,3.1-2.8,4.8c-2.7,5.9-5.6,13.3-11.1,16.7
	c-4.7,2.9-9.1,6.9-14.9,7.4c-5.2,0.4-10.3-1.1-15.2-2.9c-28.9-10.1-57.2-42.7-62.2-73.3c-3-18.3-4.5-36.7-5.3-55.2
	c-1.3-32.3,0.1-63.4,27.3-85.1C176,62.2,213.1,47.9,240,56.2c5.2,1.6,7.6,4.7,13.2,3.6C266.9,57.2,280.5,53.9,294.2,54.3z"/>
<path class="st4" d="M227.7,128c-0.6,3.4-1.1,6.8-1,10.2c0.3,10-2.5,18-6.3,27c-0.4,0.9-0.8,1.9-0.6,2.9c0.3,2.1,2.7,3.1,4.8,3.6
	c14.3,3.6,29.3,3.7,43.9,1.7c2.5-0.3,5-0.8,7.1-2c2.2-1.2,4-3.3,4.1-5.8c0.1-2.4-1.3-4.7-2.3-6.9c-5-11.1-7.7-24.3-8.4-36.4
	c-0.5-9.5-4.8-18.2-4-27.8c0.6-8.3,4.5-16.2,10.5-22c2-1.9,3.5-3.6,6.3-3.8c3-0.2,6.1,0,9.1-0.3c3.3-0.3,7-1,10.2-1.8
	c3.2-0.8,6.4-4.6,5.7-7.9c-1.5-7.6-20.1-6.7-25.5-6.1c-4.3,0.4-8.5,1.7-12.7,2.6c-5.3,1.2-10.5,2.6-15.9,3c-5.3,0.5-10.1-3.1-15-4.4
	c-10-2.5-21.5-2.9-31.1,1.4c-2.9,1.3-5.9,3.8-5.5,6.9c0.6,4.3,6.9,6.3,10.5,7.1c5.7,1.2,13.5,1.5,18.7,4.6c5.9,3.5,7.8,9.1,6.6,15.8
	c-0.6,3.5-2,6.8-3.3,10.1c-2,5-4.5,10-5.7,15.2C226.8,119.4,228.5,123.7,227.7,128z"/>
<g>
	<path class="st5" d="M156.5,104.4c8.4-9.9,17.6-19.5,28.5-26.5c7.4-4.8,15.7-7.7,24.4-8.9c7.4-1,17.8-1.7,23.6,4
		c14,15,1,36-9.1,49.2"/>
</g>
<g>
	<path class="st5" d="M351,105.9c-5.7-5.3-10.1-7.6-15.4-13.3C321,77,298,63,275,69c-3.9,2-8,4.9-10.2,8.8
		c-7.5,12.9-1.5,29.4,6.4,42.1"/>
</g>
<path class="st6" d="M300,217.3c0,11-13.2,27.4-3.4,36.2c3.6,3.3,8.6,4.5,13.4,5c1.5,0.2,3.1,0.3,4.3,1.3c1.5,1.2,1.7,3.3,1.7,5.2
	c-0.3,17.3-18,14.8-28.3,6.6c-5.4-4.3-8.6-9.9-16-10.6c-6.8-0.7-14.6,3.8-21.8,3.8c-12.2,0-20.1-6.4-31.2,1.6
	c-4.2,3-7.9,6.7-12.4,9.2c-4.5,2.6-10,4-14.8,2c-4.8-2-7.8-8.3-5-12.6c4.4-1.3,8.8-2.6,12.6-5.2c3.7-2.6,6.7-6.7,6.8-11.3
	c0.1-11-5.9-20.2-5.9-31.3c0-26.3,22.4-47.5,50-47.5S300,191,300,217.3z"/>
<g>
	<path class="st7" d="M382.4,136.1c3.7,29.3-13.2,59.6-40.4,62.9c-17.6,2.1-36.2-2.1-49.9-13c-1.4-1.9-3.1-3.5-5-5
		c-7.1-8.3-15.1-27.2-15-41.9c0.2-24.6,26.9-28,52.4-29.4c5.2,0,10.3,0,15.5,0C361.8,110.6,380,116.7,382.4,136.1z"/>
	<path class="st8" d="M227,138.6c0.3,15-7.4,33-15,42.4c-1.9,1.4-3.5,3.1-5,5c-14.4,14.5-56.3,19-72.3,3c-1.4-1.9-3.1-3.5-5-5
		c-10.6-11.8-19.8-45.9-7.5-61.4c8.2-10.3,20.6-11.5,36.9-13c5.1,0,10.3,0,15.5,0C199.3,111,226.6,114.5,227,138.6z"/>
	<path class="st9" d="M402,109.2c-1.7,5.9,0.7,11.3-1.4,16.3c-1.6,3.7-6.3,4.3-8.1,7.6c-4.8,8.9-3.6,19.6-5.7,29.6
		c-2,9.2-5.1,17.7-10.5,24.3c-20.3,24.8-73.5,18.2-93.1-1.4c-8.4-8.4-14.9-24.4-20.1-38.7c-2-5.7-3.9-11.1-7.2-12.4
		c-2.9-1.1-10.4-0.2-11.9,0.5c-4.7,2.2-6.7,11.8-9.1,18.6c-7.6,21.6-16.4,36.1-37.7,44.4c-31.4,12.2-67.3,3.7-78.8-20.1
		c-3-6.2-4.6-14-5.7-22c-1.7-11.7-2.2-26.1-12.9-29.6c-0.2-6.1-1.3-11.1-1.4-17.2c17.9-2.9,36.2-5.2,56.4-5.7c3.5-0.3,20-0.3,22.4,0
		c12.9,0.6,24.2,2.8,35.3,5.7c13.7,3.6,25.5,10.2,42.5,8.6c11.1-1,21.9-5.7,33-8.6c11.1-2.9,22.4-5.1,35.3-5.7
		c2.4-0.3,18.8-0.3,22.5,0C365.8,104,384.1,106.3,402,109.2z M341.8,197.1c26.1-3.1,42.2-32.1,38.7-60.2
		c-2.4-18.6-19.8-24.4-40.6-25.3h-14.8c-24.4,1.4-50,4.7-50.2,28.2c-0.1,14,7.5,32.2,14.3,40.1c1.4,1.8,3,3.4,4.8,4.8
		C307.1,195,325,199.1,341.8,197.1z M210.9,179.9c7.2-9,14.6-26.3,14.3-40.6c-0.4-23-26.5-27.7-50.2-27.7c-4,0-10.5-0.3-14.8,0
		c-16.4,1.1-25.9,3-35.4,12.4c-13.4,13.3-3,47.5,7.2,58.8c1.4,1.8,3,3.4,4.8,4.8c15.4,15.3,55.5,11,69.2-2.9
		C207.9,183.3,209.5,181.7,210.9,179.9z"/>
	<path class="st10" d="M381.9,116c1.7,3.6,10.5,3.5,14.3,1.9C394.6,114.4,385.6,114.3,381.9,116z"/>
	<path class="st10" d="M118.9,115.6c-1.7,3.6-10.5,3.5-14.3,1.9C106.2,114,115.2,113.9,118.9,115.6z"/>
</g>
<path class="st4" d="M278.9,215.8c-4.7-15.2-16.8-28.8-34.2-25.5c-15.2,3-23.9,20.2-26.8,34.1c-2.8,13.6-3.2,28.9-11.8,40.4
	c-4.1,5.5-8.3,6.4-14.3,3.3c-0.4-0.2-0.8-0.8-1.3-0.1c5.1,4.8,10.4,4.9,15.5,0.3c3.1-2.8,5.3-6.3,7.1-10
	c9.3-19.2,6.3-62.2,35.5-63.4c15.2-0.6,25.5,13.6,28.5,27c2,9.1,3.1,18.5,6.2,27.4c2.2,6.3,4.6,12.5,9.2,17.5
	c6.4,7.1,14.2,6.5,20.2-2.1c-1.3,1.1-1.9,1.6-2.6,2.2c-6.1,4.8-11.5,4.2-16.2-2.1c-2.2-2.9-3.7-6.3-5-9.7
	c-3.7-9.9-5.9-20.3-7.8-30.6C280.4,221.6,279.8,218.7,278.9,215.8z M185.6,247.5c0.9-5,0.2-11.2,0.4-14.2c0.8-9.3,2.6-18.6,5.7-27.4
	c3.3-9.2,8-17.9,14.3-25.4c6.4-7.6,14.4-12.1,22.1-18c6.1,4.3,13.7,7.8,21.2,8.4c4.7,0.4,9.4-1,13.7-3c1-0.5,8.2-5.1,8.9-4.9
	c1.8,0.7,3.4,1.4,5,2.5c12.1,7.7,21.1,18,27.5,30.9c7.6,15.1,9.9,31.3,10.3,47.9c0.1,2.2-0.8,6.2,0.5,8.2c2,3,5.1,1.2,6.5,4.3
	c3,6.5-6.3,22.9-10.8,27.1c-6.8,6.3-14.8,6.1-21.1-0.8c-2.5-2.7-4.4-5.8-7.2-8.3c-4.8-4.3-10.2-7.1-16.9-8.6c0.9,1.3,2.1,1.4,3,1.8
	c7.6,3.4,13.8,8.5,18.5,15.4c0.4,0.7,0.9,1.3,1.3,2c1.4,2.5,5.4,4.2,1.5,8.1c-4.8,4.8-9.1,6.4-13.6,4.1c-3.3-1.7-5.7-4.6-7.7-7.6
	c-4.6-6.8-7.7-14.3-10.2-22.1c-0.8-2.5-2.1-3.3-4.5-2.9c-2.9,0.5-5.7,0.3-8.5-0.1c-2.7-0.3-4.1,0.5-4.9,3.3
	c-1.9,6.2-4.5,12.2-7.7,17.9c-1.9,3.4-4.1,6.6-7,9.3c-6.1,5.4-15.5,3.1-18.6-4.4c-0.5-1.2,0.3-1.6,0.8-2.3
	c5.5-8,11.3-15.7,20.4-20.1c-6.4,1.9-11.2,5.9-15.2,11c-1.3,1.6-2.5,3.3-4,4.7c-5.9,5.6-13.1,5.7-19.1,0.3c-4.5-4-7.2-9.3-9-15
	c-0.3-0.9-4-14.5-2-14.5C183.2,254.9,184.9,251.6,185.6,247.5z"/>
<g>
	<path class="st0" d="M230.5,81c2.1,1.6,3,4,1.3,7.3c-1.4,2.8-4.7,4-7.8,4c-3.1-0.1-6-1.1-9-1.9c-7.6-2-15.1,2.5-22.4,4.7
		c-5.8,1.8-11.8,3.5-17.8,2.9c11.2-10,25.1-16.8,39.8-19.7C218,77.6,226.5,77.9,230.5,81z"/>
</g>
<path class="st11" d="M287.7,183.5c-1.8-2.7-4.2-5.1-5.1-8.3c-0.6-2.2-0.5-4.7-1.7-6.6c-1.8-2.8-4.6-4.9-6.9-7.4
	c-0.3-0.3-0.7-0.5-1.1-0.7c-0.2,0.4-0.5,0.8-0.9,1.2c-11.2,11-24.3,6.7-37.2,2.1c-2.1-0.7-4.4-1.9-6.2-3c-0.2,0.2-0.5,0.5-0.7,0.7
	c-2.4,2.2-4.8,4.4-7.3,6.7c-1.5,1.4-3,2.7-3.9,4.6c-1.3,2.6-1.1,5.8-0.9,8.7c0,0.4,0.1,0.9,0.4,1.3c0.4,0.4,1,0.4,1.3,0.8
	c0.3,0.3,0.4,0.7,0.4,1.1c0.4,3.1-0.5,6.1-0.8,9.2s0.5,6.7,3.1,8.1c2,1.1,4.4,0.6,6.6,0.9c10.3,1.4,6.1,11.3,8.9,17.9
	c0.9,2.1,2.2,4,3.9,5.5c1.5,1.3,3.2,2.2,4.9,3c4.5,2.3,9.8,4.6,14.3,2.4c8.2-4.1,5.6-15.3,11.3-21.4c2-2.1,4-4.2,5.2-6.8
	c0.8-1.8,1.3-3.9,2.8-5c2.1,0,4.2-1.1,6.1-2c1.9-0.9,3.8-2,4.8-3.8C290.8,189.9,289.5,186.2,287.7,183.5z"/>
<path class="st6" d="M250.5,145.1c4.2,0,8.2,0.4,12,2.3c5.7,2.9,8.6,7.6,9.4,13.8c0.2,1.4-0.3,2.1-1.4,2.7c-5,2.7-10.2,5.1-15.7,6.8
	c-3.2,0.9-6.3,0.8-9.4-0.2c-5.3-1.6-10.2-4-15.1-6.5c-1.4-0.8-1.8-1.6-1.6-3.3c1.4-8.7,7.2-14.4,16-15.3
	C246.6,145.2,248.5,145.2,250.5,145.1z M236.7,163.2c0.5,0,0.9,0,1.2,0c1.8-0.2,3.3-0.9,3.8-2.8c0.3-1.3,0.2-2.6-0.8-3.4
	c-1.6-1.2-3,0.2-4.3,0.9c-0.4,0.2-0.8,0.5-1.1,0.8c-1.1,1-3.2,1.8-2.8,3.1C233.1,163.3,235.5,162.7,236.7,163.2z M263.3,163.3
	c1.4-0.4,3.9,0,4.4-1.5c0.5-1.4-1.8-2.3-3-3.3c-0.7-0.6-1.5-1.1-2.3-1.5c-0.9-0.4-1.9-1-2.9-0.2c-1,0.8-1.2,2-1,3.1
	C259,162.5,260.9,163.2,263.3,163.3z"/>
<path class="st6" d="M238.7,200.8c0.6,2.9,0.4,6.3,0.3,8.6c-0.1,2.1-0.8,6.4,1.6,7.5c0.9,0.4,2.1,0.2,2.8-0.5c0.7,1,2.2,1.4,3.3,1
	c0.8-0.3,1.3-0.8,2-1.2c0,0,1.4,0.6,1.7,0.7c1,0.2,2.5,0.4,3.2-0.6c-0.1,0.5,0.1,1,0.5,1.3c0.9,0.8,2.7,0.8,3.8,0.5
	c1.6-0.3,3-1.3,3.8-2.7c1.3-2.4,0.1-5.4,0.5-8.1c0.5-3.2,3.6-5.6,6.6-5.1c-1.2-2.1-4.2-4.6-6.2-5.7c-3-1.6-6.4-2.7-10.1-3
	c-6.2-0.5-11.3,0.8-15.6,3.3C237.8,197.6,238.4,199.1,238.7,200.8z"/>
<g>
	<path class="st6" d="M244.5,167.7c1.5,3.7,2.6,7.4,3.4,11.3c0.7,3.4,1.9,7.9,0.4,11.1c0,0.1-0.1,0.2-0.1,0.3c0,0.2,0.3,0.3,0.5,0.3
		c1.9,0.2,3.8,0.4,5.8,0.6c-0.5-0.1-0.6-4.6-0.6-5.3c0.1-2.3,0.3-4.6,0.7-6.8c0.9-4.5,2.6-8.8,4.9-12.8c1.3-2.3-1.1-4-3.1-3.6
		c-3,0.6-6.1,1.6-9.3,1.9C245.5,164.9,243.6,165.6,244.5,167.7z"/>
</g>
<g>
	<path class="st0" d="M274.9,81.4c-3.3,3.9-3,11,2.7,12.9c5.3,1.7,7.6-4.7,12.2-6.4c5.3-1.9,17.6,5.6,22.6,7.1
		c5.8,1.8,11.8,3.5,17.8,2.9c-11.2-10-25.1-16.8-39.8-19.7c-4.5-0.9-11-0.9-14.7,2.4C275.3,80.9,275.1,81.2,274.9,81.4z"/>
</g>
<g>
	<path class="st1" d="M259.5,423.1c0,0.3-0.1,0.6-0.1,0.9c-1.1,14.5,8.8,26.2,22.3,30.7c17.9,5.9,39.7-4.2,55-13.3
		c22.4-13.4,10.8-47.7-4.8-61.7c-7.9-7-31.9-11.3-41.1-6.1C278.5,380.3,261,409.4,259.5,423.1z"/>
	<g id="JlFk7Y_1_">
		<g>
			<path class="st12" d="M306.7,421.1c-0.3,10-5.6,27.2-19.2,26.6c-12.4-0.6-26.5-11.5-21-24.9c4.5-10.9,19.2-18.2,30.1-15
				c3,0.9,5.5,2.4,7.4,4.7C305.9,414.9,306.8,417.8,306.7,421.1z"/>
			<path class="st12" d="M335,418.5c-3.7,2.4-7.9,4-12.5,4.1c-2.1,0-4-0.5-5.7-1.8c-2.9-2-3.8-5.2-2.4-8.5c1.2-2.8,3.2-5,5.7-6.7
				c3.2-2.2,6.7-3.7,10.6-4c1.7-0.1,3.4,0,5,0.5c4.8,1.4,6.9,6.4,4.6,10.9C339,415.3,337.2,416.9,335,418.5z"/>
			<path class="st12" d="M318.6,403.1c-2.6,1.7-5.4,3-8.6,3c-3.8,0-6.6-2.5-7-6.3c-0.2-1.6-0.1-3.3,0.6-4.8c2.6-6.3,7-10.7,13.5-13
				c2.2-0.8,4.5-0.9,6.6,0.3c2.7,1.6,4,4.1,3.8,7.3c-0.1,2-0.8,3.8-1.7,5.5C324,398.4,321.6,401,318.6,403.1z"/>
			<path class="st12" d="M312.7,427.6c3.8-2.2,8.3-3.3,13.1-2.1c2.2,0.5,4.1,1.7,5.6,3.4c2.6,3.2,2.2,7.4-1,10.6
				c-4.3,4.2-12.4,5.6-17.8,3.1c-3.8-1.8-5.7-5.8-4.5-9.6C308.9,430.7,310.4,429.2,312.7,427.6z"/>
			<path class="st12" d="M288.7,382.5c1.2-0.8,2.5-1.5,4-1.8c4.2-1.1,7.9,1,9.1,5.2c0.6,2,0.7,4.1,0.1,6.1
				c-1.6,5.2-4.6,9.3-9.5,11.7c-3,1.5-6.4,1-8.5-1.3c-1.6-1.7-2.3-3.8-2.3-6C281.7,390.7,284.1,386.1,288.7,382.5z"/>
		</g>
	</g>
</g>
<g>
	<path class="st1" d="M248.2,423.1c0,0.3,0.1,0.6,0.1,0.9c1.1,14.5-8.8,26.2-22.3,30.7c-17.9,5.9-39.7-4.2-55-13.3
		c-22.4-13.4-10.8-47.7,4.8-61.7c7.9-7,31.9-11.3,41.1-6.1C229.3,380.3,246.7,409.4,248.2,423.1z"/>
	<g id="JlFk7Y_2_">
		<g>
			<path class="st12" d="M201,421.1c0.3,10,5.6,27.2,19.2,26.6c12.4-0.6,26.5-11.5,21-24.9c-4.5-10.9-19.2-18.2-30.1-15
				c-3,0.9-5.5,2.4-7.4,4.7C201.8,414.9,200.9,417.8,201,421.1z"/>
			<path class="st12" d="M172.7,418.5c3.7,2.4,7.9,4,12.5,4.1c2.1,0,4-0.5,5.7-1.8c2.9-2,3.8-5.2,2.4-8.5c-1.2-2.8-3.2-5-5.7-6.7
				c-3.2-2.2-6.7-3.7-10.6-4c-1.7-0.1-3.4,0-5,0.5c-4.8,1.4-6.9,6.4-4.6,10.9C168.7,415.3,170.6,416.9,172.7,418.5z"/>
			<path class="st12" d="M189.1,403.1c2.6,1.7,5.4,3,8.6,3c3.8,0,6.6-2.5,7-6.3c0.2-1.6,0.1-3.3-0.6-4.8c-2.6-6.3-7-10.7-13.5-13
				c-2.2-0.8-4.5-0.9-6.6,0.3c-2.7,1.6-4,4.1-3.8,7.3c0.1,2,0.8,3.8,1.7,5.5C183.8,398.4,186.1,401,189.1,403.1z"/>
			<path class="st12" d="M195,427.6c-3.8-2.2-8.3-3.3-13.1-2.1c-2.2,0.5-4.1,1.7-5.6,3.4c-2.6,3.2-2.2,7.4,1,10.6
				c4.3,4.2,12.4,5.6,17.8,3.1c3.8-1.8,5.7-5.8,4.5-9.6C198.9,430.7,197.3,429.2,195,427.6z"/>
			<path class="st12" d="M219.1,382.5c-1.2-0.8-2.5-1.5-4-1.8c-4.2-1.1-7.9,1-9.1,5.2c-0.6,2-0.7,4.1-0.1,6.1
				c1.6,5.2,4.6,9.3,9.5,11.7c3,1.5,6.4,1,8.5-1.3c1.6-1.7,2.3-3.8,2.3-6C226,390.7,223.6,386.1,219.1,382.5z"/>
		</g>
	</g>
</g>
<path class="st5" d="M149.5,250.2c-10.3-3.3-22.3-4.5-31.3,2.3c-5.1,3.9-8.5,9.9-11,16.1c-13.5,33-5.9,70.4,1.7,104.9
	c1.7,7.8,3.4,16,1.1,23.7c-2.8,9.2-11,16-12.7,25.5c-2.5,14.3,10.8,25.5,23.5,29.8c14.5,4.8,32.6,4.2,42.8-8.4
	c6.8-8.4,8.5-20.1,8.1-31.1s-2.6-21.7-2.3-32.7c0.4-18.6,7.8-36.3,12.7-54.3c4.9-18,7-38.5-2.1-54
	C173.2,260.8,161.5,254.1,149.5,250.2z"/>
<path class="st1" d="M111.2,386.2c10.3-6.6,23.7-14.4,31.1-24.1c5.3-6.9,8-16.5,16.2-20c2.6-1.1,5.6-1.5,8-2.9
	c22.1-12.8,25.7-46.9,13.4-67.7c-6.7-11.3-18.4-18.1-30.4-21.9c-10.3-3.3-22.3-4.5-31.3,2.3c-5.1,3.9-8.5,9.9-11,16.1
	c-13.5,33-5.9,70.4,1.7,104.9C110,377.2,110.9,381.7,111.2,386.2z"/>
<g>
	<path class="st6" d="M127.8,440.9c-0.1,0.1-0.1,0.2-0.2,0.4c-1.9,3.6-3.5,7.3-4.1,11.4c-0.1,0.4-0.2,0.6-0.6,0.4
		c-0.3-0.1-0.6-0.1-0.5-0.6c0.6-4.3,1.8-8.2,4.3-11.8c0.1-0.2,0.2-0.6,0.6-0.4C127.5,440.5,127.7,440.6,127.8,440.9z"/>
	<path class="st6" d="M112.7,448c-0.6-0.3-1-0.5-0.9-1.3c0.5-4.1,1.8-7.8,4.2-11.2c0.2-0.3,0.2-0.9,0.8-0.5c0.6,0.4,0.2,0.7,0,1.1
		c-1.8,3.6-3.5,7.2-4,11.3C112.9,447.6,112.8,447.8,112.7,448z"/>
	<path class="st6" d="M138.6,455.5c-0.5,0.1-0.8-0.1-0.7-0.6c0.5-4.1,1.9-7.9,4.3-11.3c0.2-0.3,0.4-0.4,0.8-0.1
		c0.4,0.2,0.3,0.5,0.1,0.8c-1.9,3.4-3.3,7-4.1,10.8C138.9,455.5,138.8,455.4,138.6,455.5z"/>
</g>
<g>
	<g>
		<g>
			<g>
				<path class="st10" d="M209.1,148.8c-0.2-0.9,0.2-1.7,1.1-1.9c0.9-0.2,1.8,0.3,2,1.1c0.2,0.9-0.2,1.7-1.1,1.9
					C210.2,150.1,209.3,149.6,209.1,148.8z M211.9,148.1c-0.2-0.7-0.9-1.2-1.6-1c-0.7,0.2-1.1,0.9-0.9,1.6c0.2,0.7,0.9,1.2,1.6,1
					C211.7,149.5,212.1,148.8,211.9,148.1z M209.7,147.7l0.9-0.2c0.3-0.1,0.6,0,0.6,0.3c0.1,0.2,0,0.4-0.2,0.5l0.4,0.3
					c0.1,0.1,0.3,0.2,0.4,0.3l0,0l-0.4,0.1c-0.1,0-0.4-0.3-0.7-0.6l-0.2,0l0.1,0.5c0,0.2,0,0.2,0.3,0.1l0,0.1l-0.8,0.2l0-0.1
					c0.2-0.1,0.2-0.1,0.2-0.2l-0.3-1.1C209.9,147.8,209.9,147.8,209.7,147.7L209.7,147.7z M210.5,148.4l0.2,0
					c0.2-0.1,0.2-0.3,0.2-0.5c-0.1-0.3-0.2-0.3-0.4-0.3l-0.2,0L210.5,148.4z"/>
			</g>
		</g>
		<g>
			<path class="st10" d="M170.9,145.5l0.3,1.2c-0.4,0.3-0.6,0.5-0.7,0.8c-0.1,0.3-0.1,0.6,0,0.9l2.9,10.4c0.1,0.3,0.2,0.6,0.4,0.8
				c0.2,0.2,0.5,0.3,1,0.4l0.3,1.2c-1.1,0.2-2.1,0.2-3.1-0.1c-0.9-0.2-1.8-0.6-2.5-1.2c-0.7-0.6-1.4-1.3-1.9-2.1
				c-0.5-0.8-0.9-1.7-1.2-2.8c-0.3-1-0.4-2-0.4-3c0-1,0.2-1.9,0.5-2.7c0.3-0.8,0.9-1.6,1.6-2.2C169,146.4,169.8,145.9,170.9,145.5z
				 M176.2,160.9l-0.3-1.2c0.4-0.3,0.6-0.5,0.7-0.8c0.1-0.3,0.1-0.6,0-0.9l-2.9-10.4c-0.1-0.3-0.2-0.6-0.4-0.8
				c-0.2-0.2-0.5-0.3-1-0.4l-0.3-1.2c1.1-0.2,2.1-0.2,3.1,0.1c1,0.2,1.8,0.6,2.5,1.2c0.7,0.6,1.4,1.3,1.9,2.1
				c0.5,0.8,0.9,1.7,1.2,2.8c0.3,1,0.4,2,0.4,3c0,1-0.2,1.9-0.5,2.7c-0.3,0.9-0.9,1.6-1.6,2.2C178.2,160,177.3,160.5,176.2,160.9z"
				/>
			<path class="st10" d="M184.2,156.3l-1.5-5.4l0,0l1.2,1.1l1.1,4c0.2,0.5,0.4,0.8,0.6,0.9c0.2,0.1,0.4,0.2,0.6,0.3
				c0.2,0,0.4,0.1,0.4,0.3c0.1,0.3-0.1,0.4-0.6,0.6l-1.6,0.4c-0.5,0.1-0.8,0.1-0.8-0.2c0-0.1,0-0.2,0.1-0.3c0.1-0.1,0.2-0.2,0.3-0.3
				c0.1-0.1,0.2-0.3,0.3-0.5C184.2,157,184.2,156.7,184.2,156.3z M189.7,151l-0.5-1.9c-0.1-0.4-0.3-0.7-0.4-0.9
				c-0.2-0.2-0.3-0.3-0.5-0.4c-0.2-0.1-0.4-0.1-0.5-0.1c-0.1,0-0.2-0.1-0.3-0.3c-0.1-0.3,0.1-0.5,0.5-0.6l1.9-0.5
				c0.4-0.1,0.6,0,0.7,0.2c0,0.1,0,0.2-0.1,0.3c-0.1,0.1-0.2,0.2-0.3,0.4c-0.1,0.1-0.2,0.3-0.3,0.6c0,0.3,0,0.6,0.1,1l0.9,3.2l0,0
				L189.7,151z M185.2,147.6l6,5.7l0.9,3.2L190,157l-7.5-7.1c-0.2-0.2-0.4-0.4-0.5-0.4c-0.1-0.1-0.3-0.1-0.5-0.1
				c-0.2,0-0.3,0-0.4-0.1c-0.1,0-0.1-0.1-0.2-0.2c0-0.2,0-0.3,0.1-0.4c0.1-0.1,0.3-0.1,0.5-0.2L185.2,147.6z"/>
			<path class="st10" d="M196.1,146.4l2.4,8.5l-3.7,0.9c-0.1,0-0.2,0-0.4,0c-0.1,0-0.2-0.1-0.3-0.3c0-0.2,0-0.3,0.2-0.4
				c0.1-0.1,0.2-0.2,0.3-0.2c0.1-0.1,0.1-0.1,0.1-0.2c0-0.1,0-0.2-0.1-0.4l-2-7c-0.1-0.3-0.1-0.4-0.2-0.5c-0.1-0.1-0.2-0.1-0.5-0.1
				c-0.2,0-0.4-0.1-0.4-0.3c0-0.2,0-0.3,0.1-0.4c0.1-0.1,0.2-0.1,0.3-0.2l4-1c0.1,0,0.2,0,0.4,0c0.1,0,0.2,0.1,0.3,0.3
				c0.1,0.2,0,0.3-0.2,0.4c-0.2,0.1-0.3,0.2-0.3,0.3C196,146,196,146.1,196.1,146.4z M199.1,154.7l-0.2-0.8c1-0.4,1.5-1.3,1.4-2.8
				c0-0.2,0-0.3,0.1-0.3c0.1-0.1,0.2-0.1,0.3-0.2c0.1,0,0.3,0,0.3,0.1c0.1,0.1,0.1,0.2,0.2,0.4l0.8,3L199.1,154.7z"/>
			<path class="st10" d="M206.7,147.1l-0.7-0.8l0.3-1.7c0.1-0.3,0.1-0.6,0-0.8c-0.1-0.2-0.1-0.3-0.2-0.4c-0.1-0.1-0.3-0.1-0.4-0.1
				c-0.2,0-0.3-0.1-0.4-0.1c-0.1,0-0.1-0.1-0.2-0.2c0-0.2,0-0.3,0.1-0.4c0.1-0.1,0.4-0.2,0.7-0.3l1.6-0.4c0.2-0.1,0.4-0.1,0.5-0.1
				c0.1,0,0.2,0.1,0.3,0.3c0,0.2,0,0.3-0.2,0.5c-0.2,0.2-0.4,0.3-0.5,0.5c-0.1,0.2-0.2,0.4-0.2,0.7L206.7,147.1z M204.1,151.9
				l-0.7-2.4l-3.5-4.2c-0.2-0.2-0.4-0.4-0.6-0.5c-0.1,0-0.2-0.1-0.3-0.1c-0.1,0-0.1-0.1-0.1-0.2c0-0.2,0-0.3,0.1-0.4
				c0.1-0.1,0.3-0.2,0.5-0.2l3.5-0.9c0.3-0.1,0.5-0.1,0.6-0.1c0.1,0,0.2,0.1,0.3,0.3c0,0.1,0,0.3-0.2,0.5c-0.1,0.1-0.1,0.1-0.2,0.2
				c0,0,0,0.1,0,0.2c0,0.1,0.1,0.3,0.3,0.5l2.8,3.3l0.9,3.1c0.1,0.3,0.1,0.4,0.2,0.5c0.1,0.1,0.2,0.1,0.5,0.1c0.2,0,0.4,0.1,0.4,0.3
				c0,0.2,0,0.3-0.1,0.4c-0.1,0.1-0.2,0.1-0.3,0.2l-4,1c-0.1,0-0.2,0-0.4,0c-0.1,0-0.2-0.1-0.3-0.3c0-0.2,0-0.3,0.2-0.4
				c0.1-0.1,0.2-0.2,0.3-0.2c0-0.1,0.1-0.1,0.1-0.2C204.1,152.2,204.1,152,204.1,151.9z"/>
		</g>
		<g>
			<path class="st10" d="M135,139l-0.3-1.1c1-0.3,1.8-0.4,2.5-0.5c0.7,0,1.3,0,1.8,0.1c1.6,0.4,2.7,1.5,3.2,3.3
				c0.5,1.7,0.1,3.2-1,4.3c-0.4,0.4-0.9,0.7-1.5,1c-0.6,0.3-1.4,0.5-2.4,0.8l-0.3-1.1c0.5-0.2,0.8-0.5,0.9-0.9
				c0.1-0.4,0-0.8-0.2-1.4l-0.8-2.9c-0.1-0.5-0.4-0.9-0.6-1.2C135.9,139.1,135.5,139,135,139z M132.2,151.8l-2.9-10.2
				c-0.1-0.4-0.2-0.6-0.3-0.7c-0.1-0.1-0.3-0.1-0.7-0.2c-0.3,0-0.5-0.1-0.6-0.4c-0.1-0.2,0-0.4,0.1-0.6c0.2-0.1,0.3-0.2,0.5-0.2
				l5.4-1.4l3.5,12.4c0.1,0.4,0.2,0.6,0.3,0.7c0.1,0.1,0.3,0.1,0.7,0.2c0.3,0,0.5,0.2,0.6,0.4c0.1,0.2,0,0.4-0.1,0.6
				c-0.2,0.1-0.3,0.2-0.4,0.2l-5.8,1.5c-0.1,0-0.3,0-0.5,0c-0.2,0-0.3-0.2-0.4-0.4c-0.1-0.3,0-0.5,0.3-0.6c0.3-0.2,0.5-0.3,0.5-0.5
				C132.4,152.5,132.3,152.2,132.2,151.8z"/>
			<path class="st10" d="M146.8,148.9l-1.9-6.8c-0.1-0.3-0.1-0.4-0.2-0.5c-0.1-0.1-0.2-0.1-0.5-0.1c-0.2,0-0.3-0.1-0.4-0.3
				c0-0.2,0-0.3,0.1-0.4c0.1-0.1,0.2-0.1,0.3-0.2l3.6-0.9l2.3,8.3c0.1,0.3,0.1,0.4,0.2,0.5c0.1,0.1,0.2,0.1,0.5,0.1
				c0.2,0,0.4,0.1,0.4,0.3c0,0.2,0,0.3-0.1,0.4c-0.1,0.1-0.2,0.1-0.3,0.2l-3.9,1c-0.1,0-0.2,0-0.3,0c-0.1,0-0.2-0.1-0.3-0.3
				c0-0.2,0-0.3,0.2-0.4c0.1-0.1,0.2-0.2,0.3-0.2c0-0.1,0.1-0.1,0.1-0.2C146.9,149.2,146.9,149.1,146.8,148.9z M148.7,140.4
				l-0.2-0.8l0.1,0l0.3-0.1c1-0.3,1.8-0.3,2.4-0.2c1,0.2,1.7,0.8,2,1.8c0.1,0.5,0.1,0.9,0,1.3c-0.1,0.4-0.3,0.7-0.6,1
				c-0.3,0.3-0.7,0.5-1.1,0.8l0,0c0.8-0.1,1.4-0.1,1.9,0.1c0.5,0.2,0.8,0.5,1,1.2l0.3,1.1c0.1,0.3,0.2,0.4,0.2,0.3
				c0,0,0.1,0,0.1-0.1c0,0,0.1-0.1,0.1-0.2c0-0.1,0.1-0.1,0.1-0.2c0,0,0.1-0.1,0.2-0.1c0.1,0,0.2,0,0.3,0.1c0.1,0.1,0.2,0.1,0.2,0.2
				c0,0.2,0,0.4-0.1,0.6c-0.1,0.2-0.2,0.5-0.4,0.6c-0.3,0.4-0.8,0.7-1.4,0.9c-0.6,0.2-1.2,0.1-1.7-0.2c-0.3-0.2-0.5-0.4-0.6-0.6
				c-0.1-0.2-0.3-0.5-0.4-0.9l-0.2-0.9c-0.1-0.4-0.3-0.7-0.4-1c-0.2-0.2-0.4-0.3-0.8-0.2l-0.2-0.8c0.3-0.1,0.5-0.3,0.6-0.5
				c0.1-0.2,0-0.5-0.1-0.9l-0.4-1.6c-0.1-0.3-0.2-0.6-0.4-0.7C149.3,140.5,149.1,140.4,148.7,140.4z"/>
			<path class="st10" d="M158,137l0.2,0.8c-0.3,0.2-0.4,0.3-0.5,0.5c0,0.2,0,0.4,0,0.6l1.9,6.7c0.1,0.2,0.2,0.4,0.3,0.5
				c0.1,0.1,0.4,0.2,0.7,0.2l0.2,0.8c-0.7,0.1-1.4,0.1-2,0c-0.6-0.1-1.2-0.4-1.7-0.8c-0.5-0.4-0.9-0.8-1.2-1.4
				c-0.3-0.5-0.6-1.1-0.8-1.8c-0.2-0.7-0.3-1.3-0.3-1.9c0-0.6,0.1-1.2,0.4-1.8c0.2-0.5,0.6-1,1-1.5C156.8,137.5,157.4,137.2,158,137
				z M161.5,146.9l-0.2-0.8c0.3-0.2,0.4-0.3,0.5-0.5c0-0.2,0-0.4,0-0.6l-1.9-6.7c-0.1-0.2-0.2-0.4-0.3-0.5c-0.1-0.1-0.4-0.2-0.7-0.2
				l-0.2-0.8c0.7-0.1,1.4-0.1,2,0c0.6,0.1,1.2,0.4,1.7,0.8c0.5,0.4,0.9,0.8,1.2,1.4c0.3,0.5,0.6,1.1,0.8,1.8
				c0.2,0.7,0.3,1.3,0.3,1.9c0,0.6-0.1,1.2-0.4,1.8c-0.2,0.6-0.6,1-1,1.5C162.8,146.4,162.2,146.7,161.5,146.9z"/>
			<path class="st10" d="M167.2,143.1l-1.2-4.4l0,0l1.4,1.9l0.6,2.2c0.2,0.5,0.4,0.7,0.6,0.9c0.2,0.1,0.4,0.2,0.6,0.3
				c0.2,0,0.4,0.1,0.4,0.3c0.1,0.3-0.1,0.4-0.6,0.6l-1.6,0.4c-0.5,0.1-0.7,0.1-0.8-0.2c0-0.1,0-0.2,0.1-0.3c0.1-0.1,0.2-0.2,0.3-0.3
				c0.1-0.1,0.2-0.3,0.3-0.5C167.2,143.8,167.2,143.5,167.2,143.1z M173,142.2l-2.3-8.3l3.6-0.9c0.1,0,0.2,0,0.3,0
				c0.1,0,0.2,0.1,0.3,0.3c0.1,0.2,0,0.3-0.2,0.4c-0.2,0.1-0.3,0.2-0.3,0.3c0,0.1,0,0.3,0.1,0.5l1.9,6.8c0.1,0.3,0.1,0.4,0.2,0.5
				c0.1,0.1,0.2,0.1,0.5,0.1c0.2,0,0.4,0.1,0.4,0.3c0,0.2,0,0.3-0.1,0.4c-0.1,0.1-0.2,0.1-0.3,0.2l-3.9,1c-0.1,0-0.2,0-0.3,0
				c-0.1,0-0.2-0.1-0.3-0.3c0-0.2,0-0.3,0.2-0.4c0.2-0.1,0.3-0.2,0.3-0.3C173.1,142.7,173.1,142.5,173,142.2z M164,136.1
				c-0.1-0.3,0.1-0.5,0.5-0.6l3.5-0.9l2.6,3.6l0,0l0-2.3l0,0l0.7,2.4l-0.2,6l-0.4,0.1l-5.1-7.3c-0.2-0.2-0.3-0.4-0.4-0.5
				c-0.1-0.1-0.2-0.2-0.3-0.2c-0.1,0-0.1,0-0.2,0C164.2,136.4,164,136.3,164,136.1z"/>
			<path class="st10" d="M179.8,131.4l0.2,0.8c-0.3,0.2-0.4,0.3-0.5,0.5c0,0.2,0,0.4,0,0.6l1.9,6.7c0.1,0.2,0.2,0.4,0.3,0.5
				c0.1,0.1,0.4,0.2,0.7,0.2l0.2,0.8c-0.7,0.1-1.4,0.1-2,0c-0.6-0.1-1.2-0.4-1.7-0.8c-0.5-0.4-0.9-0.8-1.2-1.4
				c-0.3-0.5-0.6-1.1-0.8-1.8c-0.2-0.7-0.3-1.3-0.3-1.9c0-0.6,0.1-1.2,0.4-1.8c0.2-0.5,0.6-1,1-1.5
				C178.6,132,179.1,131.6,179.8,131.4z M183.3,141.4l-0.2-0.8c0.3-0.2,0.4-0.4,0.5-0.5c0-0.2,0-0.4,0-0.6l-1.9-6.7
				c-0.1-0.2-0.2-0.4-0.3-0.5c-0.1-0.1-0.4-0.2-0.7-0.2l-0.2-0.8c0.7-0.1,1.4-0.1,2,0c0.6,0.1,1.2,0.4,1.7,0.8
				c0.5,0.4,0.9,0.8,1.2,1.4c0.3,0.5,0.6,1.1,0.8,1.8c0.2,0.7,0.3,1.3,0.3,1.9c0,0.6-0.1,1.2-0.4,1.8c-0.2,0.6-0.6,1-1,1.5
				C184.6,140.8,184,141.1,183.3,141.4z"/>
		</g>
	</g>
	<g>
		<path class="st10" d="M141.6,168.2h0.8v4.1c0,0.6,0.1,1,0.2,1.2c0.1,0.2,0.3,0.4,0.5,0.5c0.2,0.1,0.5,0.2,0.8,0.2
			c0.3,0,0.6-0.1,0.8-0.2c0.2-0.1,0.4-0.3,0.5-0.5c0.1-0.2,0.2-0.7,0.2-1.5v-3.8h0.8v4c0,0.7-0.1,1.3-0.3,1.6
			c-0.2,0.3-0.4,0.5-0.7,0.7c-0.3,0.2-0.7,0.3-1.2,0.3c-0.5,0-0.9-0.1-1.3-0.2c-0.4-0.1-0.7-0.4-0.8-0.7c-0.2-0.3-0.3-0.8-0.3-1.5
			V168.2z"/>
		<polygon class="st10" points="149.6,174.6 148.7,174.6 148.7,168.2 149.6,168.2 149.6,171.3 152.3,168.2 153.2,168.2 150.6,171.2 
			153.6,174.6 152.6,174.6 149.6,171.3 		"/>
		<polygon class="st10" points="160.8,174.6 160.8,168.2 164.4,168.2 164.4,168.9 161.6,168.9 161.6,170.9 164,170.9 164,171.6 
			161.6,171.6 161.6,173.9 164.6,173.9 164.6,174.6 		"/>
		<path class="st10" d="M167.2,168.2h0.8v4.1c0,0.6,0.1,1,0.2,1.2c0.1,0.2,0.3,0.4,0.5,0.5c0.2,0.1,0.5,0.2,0.8,0.2
			c0.3,0,0.6-0.1,0.8-0.2c0.2-0.1,0.4-0.3,0.5-0.5c0.1-0.2,0.2-0.7,0.2-1.5v-3.8h0.8v4c0,0.7-0.1,1.3-0.3,1.6
			c-0.2,0.3-0.4,0.5-0.7,0.7c-0.3,0.2-0.7,0.3-1.2,0.3c-0.5,0-0.9-0.1-1.3-0.2c-0.4-0.1-0.7-0.4-0.8-0.7c-0.2-0.3-0.3-0.8-0.3-1.5
			V168.2z"/>
		<path class="st10" d="M175.5,174.6h-0.8v-6.4h2c0.5,0,0.9,0.1,1.1,0.2c0.2,0.1,0.4,0.3,0.6,0.6c0.1,0.3,0.2,0.6,0.2,0.9
			c0,0.3,0,0.5-0.1,0.7c-0.1,0.2-0.2,0.4-0.4,0.6c-0.2,0.2-0.4,0.4-0.8,0.5c0.1,0.1,0.2,0.1,0.3,0.2c0.1,0.1,0.2,0.2,0.3,0.3
			c0.1,0.2,0.2,0.3,0.3,0.4l1,1.9h-1l-0.9-1.7c-0.2-0.4-0.5-0.8-0.8-1.1h-0.8V174.6z M175.5,171.2h0.8c0.3,0,0.6-0.1,0.8-0.2
			c0.2-0.1,0.3-0.3,0.4-0.5c0.1-0.2,0.2-0.4,0.2-0.7c0-0.2,0-0.4-0.1-0.5c-0.1-0.2-0.2-0.3-0.4-0.4c-0.2-0.1-0.4-0.2-0.8-0.2h-0.9
			V171.2z"/>
		<path class="st10" d="M183.9,174.8c-0.8,0-1.5-0.3-2-0.9c-0.5-0.6-0.8-1.4-0.8-2.5c0-1.1,0.3-1.9,0.8-2.5c0.5-0.6,1.2-0.9,2-0.9
			c0.8,0,1.5,0.3,2,0.9c0.5,0.6,0.8,1.4,0.8,2.5c0,1.1-0.3,1.9-0.8,2.5C185.4,174.5,184.7,174.8,183.9,174.8z M183.9,174.2
			c0.6,0,1-0.3,1.4-0.8c0.3-0.5,0.5-1.2,0.5-2c0-0.8-0.2-1.5-0.5-2c-0.3-0.5-0.8-0.8-1.4-0.8c-0.6,0-1,0.3-1.4,0.8
			c-0.3,0.5-0.5,1.2-0.5,2c0,0.8,0.2,1.5,0.5,2C182.9,173.9,183.4,174.2,183.9,174.2z"/>
		<path class="st10" d="M190.2,174.6h-0.8v-6.4h1.8c0.7,0,1.2,0.1,1.4,0.2c0.3,0.1,0.5,0.3,0.6,0.6c0.1,0.3,0.2,0.6,0.2,0.9
			c0,0.6-0.2,1.1-0.6,1.5c-0.4,0.4-1,0.6-1.8,0.6h-0.8V174.6z M190.2,171.4h0.6c0.7,0,1.2-0.1,1.5-0.4c0.2-0.3,0.4-0.6,0.4-1
			c0-0.3-0.1-0.6-0.3-0.8c-0.2-0.2-0.6-0.3-1.1-0.3h-1V171.4z"/>
		<polygon class="st10" points="196,174.6 196,168.2 199.6,168.2 199.6,168.9 196.8,168.9 196.8,170.9 199.2,170.9 199.2,171.6 
			196.8,171.6 196.8,173.9 199.8,173.9 199.8,174.6 		"/>
		<path class="st10" d="M157.9,170.8L157.9,170.8c-0.4,0.3-0.7,0.5-1,0.7c0.1,0.4,0.3,0.8,0.4,1.2l-0.1,0c-0.3-0.2-0.6-0.5-1-0.7
			c-0.3,0.2-0.7,0.5-1,0.7c0.1-0.4,0.3-0.8,0.4-1.2c-0.3-0.3-0.7-0.5-1-0.7c0.4,0,0.8,0,1.2,0c0.1-0.4,0.3-0.8,0.4-1.2
			c0.1,0.4,0.3,0.8,0.4,1.2C157.1,170.8,157.5,170.8,157.9,170.8z"/>
	</g>
</g>
<path class="st13" d="M254,310.7c0.5,0.1,0.9,0.3,1.4,0.4c0.6,0.6,0.5,1.6,1.2,2c0.5,0.3,1.2,0.2,1.7,0.3c5.4,1.2,8.6,5.3,10.5,8.9
	c0.5,0.3,1.2,0,1.5,0.5c0.6,0.4,1.6,2.7,1.1,3.7c-0.5,0.9-3.1,0.8-4.2,1.1c-2.8,0.8-4.5,2.8-7.3,5.3c-1.7,1.5-4.7,3.1-4.8,5
	c0,1.7,2.2,1.7,3.4,1.2c2.5-1.1,4.2-2.8,5.8-5.6c0.8-1.4,1.4-2.9,2.4-3.6c1-0.7,3.5-0.9,4.5,0.1c1.2,1.3-0.9,7.7-2.6,8.2
	c-0.6,0.2-1.1-0.1-1.9-0.1c-2.3,3.8-6,5.3-10.2,5.8c-1.1,0.2-2.4-0.1-3.4,0.2c-0.9,0.2-1.4,1.5-2.4,1.4c-0.6-0.2-1.1-0.3-1.7-0.5
	c-0.5-0.4-1.2-0.8-1.6-1.3c2.9-5.1,1.3-8.1,0.8-12.7c-0.2-1.7-0.2-6.2-1.7-6.9c-2.6-1.2-3.1,2.2-3.1,4.4c0,1.7,0.3,2.6,0.7,3.7
	c1,2.4,3.4,4.4,3.3,6.3c0,2.3-2,4.2-3.2,4c-1.4-0.2-2.2-1.8-3.1-2.9c-0.8-1-2.4-2.1-2.2-3.4c0.1-0.7,0.9-1.1,1.1-1.7
	c0.2-0.9-0.8-2.2-1-3.1c-0.5-2-0.1-4.2,0.1-6.5c0.3-1,0.6-2,0.9-2.9c0.4-1.1,1.6-2,1.8-3c0.1-0.7-0.4-1.5-0.1-2.2
	c0.4-1.2,2.1-2.5,3.2-2.1c1.4,0.4,1.2,1.7,2,2.6c1.2,1.2,4,2.3,6.4,3.4c2.6,1.1,4.7,2.5,7.1,3c1.2,0.3,2.2-0.2,2.5-1
	c0.8-2.4-3.9-4.5-6.6-5c-2.3-0.5-4,0.5-6-0.1c-2.1-0.6-3.8-3-3.1-4.6c0.6-1.2,2.1-0.9,3.1-1.1C251.9,311.2,252.9,310.8,254,310.7z
	 M254.2,331.4c3.1,0.4,4.2-3.9,2.2-5.3c-0.4-0.3-1.5-0.6-1.9-0.6C250.6,325.3,250.9,330.9,254.2,331.4z M250.3,312.6
	c-0.6-0.2-1.3,0.2-1.5,0.8c-0.2,0.6,0.2,1.3,0.8,1.5c0.6,0.2,1.3-0.2,1.5-0.8C251.4,313.4,251,312.8,250.3,312.6z"/>
<circle class="st14" cx="250" cy="307.1" r="1.6"/>
<path class="st15" d="M249.2,307.6c1.8,0.9,1.7,5.4,0,6.3"/>
<path class="st5" d="M355.7,250.2c10.3-3.3,22.3-4.5,31.3,2.3c5.1,3.9,8.5,9.9,11,16.1c13.5,33,5.9,70.4-1.7,104.9
	c-1.7,7.8-3.4,16-1.1,23.7c2.8,9.2,11,16,12.7,25.5c2.5,14.3-10.8,25.5-23.5,29.8c-14.5,4.8-32.6,4.2-42.8-8.4
	c-6.8-8.4-8.5-20.1-8.1-31.1c0.4-10.9,2.6-21.7,2.3-32.7c-0.4-18.6-7.8-36.3-12.7-54.3c-4.9-18-7-38.5,2.1-54
	C332,260.8,343.8,254.1,355.7,250.2z"/>
<path class="st1" d="M394.1,386.2c-10.3-6.6-23.7-14.4-31.1-24.1c-5.3-6.9-8-16.5-16.2-20c-2.6-1.1-5.6-1.5-8-2.9
	c-22.1-12.8-25.7-46.9-13.4-67.7c6.7-11.3,18.4-18.1,30.4-21.9c10.3-3.3,22.3-4.5,31.3,2.3c5.1,3.9,8.5,9.9,11,16.1
	c13.5,33,5.9,70.4-1.7,104.9C395.3,377.2,394.3,381.7,394.1,386.2z"/>
<g>
	<path class="st6" d="M377.5,440.9c0.1,0.1,0.1,0.2,0.2,0.4c1.9,3.6,3.5,7.3,4.1,11.4c0.1,0.4,0.2,0.6,0.6,0.4
		c0.3-0.1,0.6-0.1,0.5-0.6c-0.6-4.3-1.8-8.2-4.3-11.8c-0.1-0.2-0.2-0.6-0.6-0.4C377.7,440.5,377.5,440.6,377.5,440.9z"/>
	<path class="st6" d="M392.5,448c0.6-0.3,1-0.5,0.9-1.3c-0.5-4.1-1.8-7.8-4.2-11.2c-0.2-0.3-0.2-0.9-0.8-0.5c-0.6,0.4-0.2,0.7,0,1.1
		c1.8,3.6,3.5,7.2,4,11.3C392.4,447.6,392.5,447.8,392.5,448z"/>
	<path class="st6" d="M366.7,455.5c0.5,0.1,0.8-0.1,0.7-0.6c-0.5-4.1-1.9-7.9-4.3-11.3c-0.2-0.3-0.4-0.4-0.8-0.1
		c-0.4,0.2-0.3,0.5-0.1,0.8c1.9,3.4,3.3,7,4.1,10.8C366.4,455.5,366.4,455.4,366.7,455.5z"/>
</g>
</svg>
